<svg id="Layer_1" enable-background="new 0 0 511 511" height="512" viewBox="0 0 511 511" width="512" xmlns="http://www.w3.org/2000/svg"><g><g><path d="m502.593 319.121c.236-.91.463-1.826.688-2.743-.222.917-.455 1.83-.688 2.743z" fill="#9cd5fc"/><path d="m255.5 1c-98.131 0-158.574 55.347-158.741 55.441-3.787 17.481-10.374 42.85-10.374 61.465 0 140.833 118.763 254.972 259.596 254.972 60.017 0 115.159-27.944 158.719-62.639.178-1.087 5.8-23.477 5.8-54.239 0-140.833-114.167-255-255-255z" fill="#a07bee"/><path d="m469.776 394.227c14.732-22.796 25.936-48.086 32.818-75.106.233-.913.466-1.826.688-2.743.106-.436 1.068-4.522 1.418-6.139-43.559 34.696-98.724 55.441-158.741 55.441-140.833 0-255-114.167-255-255 0-18.615 2.013-36.757 5.8-54.239-.006.005-.011.01-.017.014-58.645 46.72-96.242 118.737-96.242 199.545 0 50.948 14.949 98.401 40.689 138.227z" fill="#8e6ae6"/><path d="m39.603 391.728c45.142 71.654 124.953 119.272 215.897 119.272 90.943 0 170.744-47.616 215.878-119.272z" fill="#e08623"/></g><g><path d="m416.741 181.042h-222.406v182.794h177.209c26.646 0 48.246-21.601 48.246-48.247v-134.723c-1.011.114-2.028.176-3.049.176z" fill="#fcf5ac"/><path d="m91.21 168.271v150.165c0 25.073 20.326 45.399 45.399 45.399h61.784v-195.564z" fill="#f8e565"/><path d="m255.5 361.179c-20.617 0-40.341-1.069-58.523-3.014v90.811c18.182 1.945 37.906 3.014 58.523 3.014 90.735 0 164.29-20.637 164.29-46.095v-90.811c0 25.458-73.555 46.095-164.29 46.095z" fill="#af7c59"/><path d="m197.9 358.261c-62.32-6.547-106.691-23.406-106.691-43.176v90.811c0 19.77 44.37 36.629 106.691 43.176z" fill="#935a40"/><path d="m419.79 168.491c0-25.457-73.555-46.095-164.29-46.095s-164.29 20.637-164.29 46.095c0 13.931 22.031 26.416 56.847 34.868 9.986 2.424 17.01 11.384 17.01 21.659v25.264c0 9.758 7.91 17.668 17.668 17.668s17.668-7.91 17.668-17.668v-14.286c0-12.78 10.715-22.964 23.476-22.265 10.232.561 20.804.855 31.622.855 8.401 0 16.653-.178 24.714-.519 4.86-.206 8.909 3.665 8.909 8.53 0 9.758 7.91 17.668 17.668 17.668s17.668-7.91 17.668-17.668c0-6.946 5.041-12.884 11.901-13.974.097-.015.194-.031.291-.046 8.667-1.384 16.518 5.285 16.518 14.063v19.914c0 9.758 7.91 17.668 17.668 17.668s17.668-7.91 17.668-17.668v-33.911c0-7.611 4.313-14.534 11.09-17.996 12.869-6.576 20.194-14.125 20.194-22.156z" fill="#c66452"/><path d="m419.79 155.551h-32.245c-29.934-11.325-77.931-18.667-132.045-18.667s-102.111 7.341-132.045 18.667h-32.245v26.772h.03c-.011.219-.03.437-.03.656 0 13.931 22.031 26.416 56.847 34.868 9.986 2.424 17.01 11.384 17.01 21.66v25.264c0 9.757 7.91 17.668 17.668 17.668s17.668-7.91 17.668-17.668v-14.286c0-12.78 10.715-22.964 23.476-22.265 10.232.561 20.804.855 31.622.855 8.401 0 16.653-.178 24.714-.519 4.861-.206 8.909 3.665 8.909 8.53 0 9.758 7.91 17.668 17.668 17.668s17.668-7.91 17.668-17.668c0-6.946 5.041-12.884 11.901-13.974.097-.016.194-.031.291-.047 8.667-1.384 16.518 5.285 16.518 14.063v19.914c0 9.757 7.91 17.668 17.668 17.668s17.668-7.91 17.668-17.668v-33.912c0-7.611 4.313-14.534 11.09-17.996 12.871-6.574 20.196-14.124 20.196-22.154 0-.219-.019-.437-.03-.656h.03v-26.773z" fill="#f8e565"/><path d="m419.79 141.063h-32.245c-29.934-11.325-77.931-18.667-132.045-18.667-41.462 0-79.322 4.313-108.229 11.423v43.114c10.124.342 18.572 5.688 23.675 13.519 3.478 4.994 5.555 10.961 5.555 17.032v56.147c0 1.053-.055 2.09-.16 3.107 1.985.772 4.136 1.212 6.394 1.212 9.758 0 17.668-7.91 17.668-17.668v-14.286c0-12.78 10.715-22.964 23.476-22.265 10.232.561 20.804.855 31.622.855 8.401 0 16.653-.178 24.714-.519 4.86-.206 8.909 3.665 8.909 8.53 0 9.758 7.91 17.668 17.668 17.668s17.668-7.91 17.668-17.668c0-6.946 5.041-12.884 11.9-13.974.097-.016.194-.031.291-.047 8.667-1.384 16.518 5.286 16.518 14.063v19.914c0 9.757 7.91 17.668 17.668 17.668s17.668-7.91 17.668-17.668v-33.912c0-7.611 4.313-14.534 11.09-17.996 12.871-6.574 20.196-14.124 20.196-22.154 0-.219-.019-.437-.03-.656h.03v-26.772z" fill="#c66452"/><path d="m91.21 136.101v31.735h.03c-.011.219-.03.437-.03.656 0 13.931 22.031 26.416 56.846 34.868 9.986 2.424 17.011 11.384 17.011 21.66v25.264c0 8.164 5.545 15.015 13.068 17.042v-58.19c0-36.523-29.607-66.13-66.13-66.13z" fill="#ae4832"/><path d="m419.79 136.101c0 10.417-12.315 20.026-33.083 27.745-29.988 11.146-77.599 9.79-131.207 9.79-90.735 0-150.538-12.077-150.538-37.535 0-18.216 23.907-33.963 78.573-41.449 21.733-2.976 46.154-4.646 71.965-4.646 90.735 0 164.29 20.637 164.29 46.095z" fill="#e08e80"/><path d="m314.741 168.491c-90.735 0-164.29-20.637-164.29-46.094 0-10.416 12.319-20.024 33.084-27.742-54.664 7.486-92.325 23.231-92.325 41.446 0 25.457 73.555 46.094 164.29 46.094 53.611 0 101.219-7.206 131.206-18.352-21.734 2.976-46.152 4.648-71.965 4.648z" fill="#c66452"/><path d="m360.374 97.833c-32.989 32.989-81.908 13.519-81.908 13.519s-17.1-47.907 15.889-80.895c11.209-11.209 22.807-23.572 37.391-26.914 28.338-6.493 56.067-2.077 56.067-2.077s8.526 53.538-15.534 87.854c-2.167 3.091-9.179 5.788-11.905 8.513z" fill="#95bd59"/><path d="m318.137 36.006c2.513-11.257 6.729-22.644 13.61-32.459-14.584 3.341-29.329 9.569-40.539 20.778-32.988 32.989-22.858 96.605-22.858 96.605s63.616 10.131 96.605-22.858c2.726-2.726 5.152-5.664 7.319-8.755-.283.065-.567.129-.85.192-31.931 7.075-60.412-21.582-53.287-53.503z" fill="#82a857"/><ellipse cx="219.483" cy="127.886" fill="#c66452" rx="27.532" ry="10.539"/><ellipse cx="300.55" cy="147.424" fill="#c66452" rx="27.532" ry="10.539"/><g><circle cx="208.16" cy="90.006" fill="#6b64bf" r="38.856"/><path d="m199.319 62.202 1.776 5.981c1.306 4.397 4.745 7.836 9.141 9.141l5.981 1.776-5.981 1.776c-4.397 1.306-7.836 4.745-9.141 9.141l-1.776 5.981-1.776-5.981c-1.306-4.397-4.745-7.836-9.141-9.141l-5.981-1.776 5.981-1.776c4.397-1.306 7.836-4.745 9.141-9.141z" fill="#4e48ab"/></g><g><circle cx="294.355" cy="111.353" fill="#6b64bf" r="38.856"/><path d="m302.413 100.448 1.776 5.981c1.306 4.397 4.745 7.836 9.141 9.141l5.981 1.776-5.981 1.776c-4.397 1.306-7.836 4.745-9.141 9.141l-1.776 5.981-1.776-5.981c-1.306-4.397-4.745-7.836-9.141-9.141l-5.981-1.776 5.981-1.776c4.397-1.306 7.836-4.745 9.141-9.141z" fill="#4e48ab"/></g></g></g></svg>