<svg id="Capa_1" enable-background="new 0 0 512 512" height="512" viewBox="0 0 512 512" width="512" xmlns="http://www.w3.org/2000/svg"><g><g><g><g><g><g><g><g><g><circle cx="256" cy="256" fill="#fe6a16" r="256"/></g></g></g></g></g></g></g></g><path d="m263.88 511.881c119.758-3.621 218.834-89.491 242.661-203.044l-58.836-58.837-375.455 70.251z" fill="#e83c00"/><g><path d="m228.688 154.427 28.528 12.208 8.214 7.825 12.536 1.055 18.418 7.882 8.499 7.246 12.038 1.543 17.819 7.626 8.809 7.016 11.72 1.77 83.027 35.531c13.369 5.721 22.039 18.862 22.039 33.404v26.661l-73.658 8.398-317.903-8.398v-137.272s12.077-8.907 23.445.802c33.592 28.694 96.578 37.792 136.469-13.297z" fill="#fff"/></g><g><path d="m438.297 244.129-83.027-35.531-11.72-1.77-8.809-7.016-17.819-7.626-12.038-1.542-8.499-7.246-18.418-7.882-12.536-1.055-8.214-7.825-1.095-.469v142.976l130.557 3.449 73.658-8.398v-26.661c-.001-14.542-8.671-27.683-22.04-33.404z" fill="#e9edf5"/></g><g><path d="m68.774 272.701s68.235-10.498 122.122 0 154.665 43.04 269.439 17.963v18.842c0 10.208-8.275 18.483-18.483 18.483h-350.237c-17.966 0-31.328-16.612-27.477-34.16z" fill="#cdd2e1"/></g><g><path d="m256.12 286.972v41.017h185.732c10.208 0 18.483-8.275 18.483-18.483v-18.842c-77.97 17.036-149.475 7.479-204.215-3.692z" fill="#afb4c8"/></g><g><path d="m257.265 166.657-18.966 29.408 20.825 8.343 18.678-28.962z" fill="#cdd2e1"/></g><g><path d="m277.802 175.446-20.537-8.789-1.145 1.775v34.773l3.004 1.203z" fill="#afb4c8"/></g><g><path d="m296.384 183.398-18.418 28.559 20.825 8.343 18.13-28.113z" fill="#afb4c8"/></g><g><path d="m334.741 199.812-17.881 27.727 20.825 8.343 17.593-27.281z" fill="#afb4c8"/></g></g></svg>